<svg width="309" height="680" viewBox="0 0 309 680" fill="none" xmlns="http://www.w3.org/2000/svg">
<path d="M115 0V10.5417L155.248 11L196 10.5417V0H115Z" fill="#242424"/>
<path d="M0 296L15 151.5L24.5 91L27.8033 76.843C30.2606 66.3119 33.8494 56.0774 38.5073 46.318L42 39L53.2579 76.7684C56.0791 86.233 57.9586 95.9531 58.8692 105.787L60 118L60.7574 129.74C61.5824 142.527 60.7655 155.368 58.3265 167.947L33.5 296H0Z" fill="#242424"/>
<path d="M309 296L294 151.5L284.5 91L281.197 76.843C278.739 66.3119 275.151 56.0774 270.493 46.318L267 39L255.742 76.7684C252.921 86.233 251.041 95.9531 250.131 105.787L249 118L248.243 129.74C247.418 142.527 248.235 155.368 250.673 167.947L275.5 296H309Z" fill="#242424"/>
<path d="M54 61.5L44.5 32L93.4908 19.3696C103.457 16.8001 113.708 15.5 124 15.5H157H183.5C196.445 15.5 209.335 17.1858 221.844 20.515L265 32L255.5 61.5L247 100.5L244.562 117.261C243.522 124.411 243 131.627 243 138.852V187V296.5C237.153 302.347 229.592 306.174 221.418 307.424L191.5 312L157 314.5L115.5 312L90.761 307.768C82.0981 306.286 74.0326 302.379 67.5 296.5V187L65.5 128L64.407 112.971C63.8034 104.671 62.5101 96.4363 60.5407 88.3511L54 61.5Z" fill="#242424"/>
<rect x="66" y="325" width="178.095" height="15.6567" fill="#242424"/>
<path d="M143.892 680H66V406.023V343.396H149.372H160.723H244.095V406.023V680H166.203L160.723 440.468C159.179 434.887 151.35 434.658 149.484 440.14L149.372 440.468L143.892 680Z" fill="#242424"/>
<path d="M127.845 360.229H82.4404V413.664L85.5724 415.472C97.6826 422.463 112.603 422.463 124.713 415.472L127.845 413.664V360.229Z" stroke="white" stroke-width="1.56567"/>
<path d="M228.043 360.229H182.639V413.664L185.771 415.472C197.881 422.463 212.801 422.463 224.911 415.472L228.043 413.664V360.229Z" stroke="white" stroke-width="1.56567"/>
</svg>
