<svg width="228" height="454" viewBox="0 0 228 454" fill="none" xmlns="http://www.w3.org/2000/svg">
<rect width="227.5" height="20" fill="#242424"/>
<path d="M125 293H102L108.5 149C109.823 143.856 117.034 143.604 118.713 148.642L118.832 149L125 293Z" fill="#242424"/>
<path d="M100 454V296H0V454H100Z" fill="#242424"/>
<path d="M128 454V296H228V454H128Z" fill="#242424"/>
<path d="M99.5 293H0V103.5V23.5H106.5H121H227.5V103.5V293H128L121 147.5C119.028 140.371 109.026 140.079 106.642 147.082L106.5 147.5L99.5 293Z" fill="#242424"/>
<path d="M79 45H21V113.258L25.0008 115.567C40.4705 124.498 59.5295 124.498 74.9992 115.567L79 113.258V45Z" stroke="white" stroke-width="2"/>
<path d="M207 45H149V113.258L153.001 115.567C168.47 124.498 187.53 124.498 202.999 115.567L207 113.258V45Z" stroke="white" stroke-width="2"/>
</svg>
