<svg width="323" height="340" viewBox="0 0 323 340" fill="none" xmlns="http://www.w3.org/2000/svg">
<path d="M121.5 0V34.5L161.5 36L202 34.5V0H121.5Z" fill="#242424"/>
<path d="M0 322.5L15 178L24.5 117.5L27.8033 103.343C30.2606 92.8119 33.8494 82.5774 38.5073 72.818L42 65.5L53.2579 103.268C56.0791 112.733 57.9586 122.453 58.8692 132.287L60 144.5L60.7574 156.24C61.5824 169.027 60.7655 181.868 58.3265 194.447L33.5 322.5H0Z" fill="#242424"/>
<path d="M322.5 322.5L307.5 178L298 117.5L294.697 103.343C292.239 92.8119 288.651 82.5774 283.993 72.818L280.5 65.5L269.242 103.268C266.421 112.733 264.541 122.453 263.631 132.287L262.5 144.5L261.743 156.24C260.918 169.027 261.735 181.868 264.173 194.447L289 322.5H322.5Z" fill="#242424"/>
<path d="M60 86.5L50.5 57L99.4908 44.3696C109.457 41.8001 119.708 40.5 130 40.5H163H189.5C202.445 40.5 215.335 42.1858 227.844 45.515L271 57L261.5 86.5L253 125.5L250.562 142.261C249.522 149.411 249 156.627 249 163.852V212V321.5C243.153 327.347 235.592 331.174 227.418 332.424L197.5 337L163 339.5L121.5 337L96.761 332.768C88.0981 331.286 80.0326 327.379 73.5 321.5V212L71.5 153L70.407 137.971C69.8034 129.671 68.5101 121.436 66.5407 113.351L60 86.5Z" fill="#242424"/>
</svg>
