<svg width="323" height="612" viewBox="0 0 323 612" fill="none" xmlns="http://www.w3.org/2000/svg">
<path d="M121.5 0V31C144.857 47.077 175.547 47.6904 199.528 32.5596L202 31V0H121.5Z" fill="#242424"/>
<path d="M0 322.5L15 178L24.5 117.5L27.8033 103.343C30.2606 92.8119 33.8494 82.5774 38.5073 72.818L42 65.5L53.2579 103.268C56.0791 112.733 57.9586 122.453 58.8692 132.287L60 144.5L60.7574 156.24C61.5824 169.027 60.7655 181.868 58.3265 194.447L33.5 322.5H0Z" fill="#242424"/>
<path d="M322.5 322.5L307.5 178L298 117.5L294.697 103.343C292.239 92.8119 288.651 82.5774 283.993 72.818L280.5 65.5L269.242 103.268C266.421 112.733 264.541 122.453 263.631 132.287L262.5 144.5L261.743 156.24C260.918 169.027 261.735 181.868 264.173 194.447L289 322.5H322.5Z" fill="#242424"/>
<path d="M60 86.5L50.5 57L114.5 40.5L116.113 41.5925C125.27 47.796 135.675 52.0319 146.558 54.0105C157.364 55.9753 168.516 55.6761 179.196 53.1129C185.046 51.7089 190.717 49.6416 196.098 46.9511L209 40.5L271 57L261.5 86.5L253 125.5L250.562 142.261C249.522 149.411 249 156.627 249 163.852V212V594C243.153 599.847 235.592 603.674 227.418 604.924L197.5 609.5L163 612L121.5 609.5L96.761 605.268C88.0981 603.786 80.0326 599.879 73.5 594V212L71.5 153L70.407 137.971C69.8034 129.671 68.5101 121.436 66.5407 113.351L60 86.5Z" fill="#242424"/>
</svg>
