<svg width="309" height="689" viewBox="0 0 309 689" fill="none" xmlns="http://www.w3.org/2000/svg">
<path d="M141.415 688.336H66V413.694V351.32H149.035V398.49C155.279 398.49 160.34 393.429 160.34 387.185V351.32H243.375V413.694V688.336H169.806L160.34 447.999C158.803 442.441 151.005 442.214 149.146 447.673L149.035 447.999L141.415 688.336Z" fill="#242424"/>
<rect x="66" y="333" width="177.375" height="15.5934" fill="#242424"/>
<path d="M150.977 351.715H158.774V387.816C158.774 392.439 155.51 396.419 150.977 397.326V351.715Z" fill="#242424"/>
<path d="M0 304L15 159.5L24.5 99L27.8033 84.843C30.2606 74.3119 33.8494 64.0774 38.5073 54.318L42 47L53.2579 84.7684C56.0791 94.233 57.9586 103.953 58.8692 113.787L60 126L60.7574 137.74C61.5824 150.527 60.7655 163.368 58.3265 175.947L33.5 304H0Z" fill="#242424"/>
<path d="M309 304L294 159.5L284.5 99L281.197 84.843C278.739 74.3119 275.151 64.0774 270.493 54.318L267 47L255.742 84.7684C252.921 94.233 251.041 103.953 250.131 113.787L249 126L248.243 137.74C247.418 150.527 248.235 163.368 250.673 175.947L275.5 304H309Z" fill="#242424"/>
<path d="M54 69.5L44.5 40L108.5 23.5L115.5 9.5L132 34L157 161L182.5 34L193.5 8L203 23.5L265 40L255.5 69.5L245 107L238.5 136L234 161L243 304.5C237.175 310.325 229.536 313.984 221.346 314.873L169.5 320.5L157 284.5L141.5 320.5L90.8739 314.963C82.1784 314.012 74.0018 310.352 67.5 304.5L77.5 161L72 136L63.5 108.5L54 69.5Z" fill="#242424"/>
<path d="M167.656 1H148.438L154.531 12.25L140 32.4062L157.812 121L174.219 32.4062L161.094 12.25L167.656 1Z" fill="#242424" stroke="black" stroke-width="0.9375"/>
<path d="M224.5 100.5L197 103.5L215 81L224.5 88.5V100.5Z" fill="white"/>
</svg>
