<svg width="64" height="64" viewBox="0 0 64 64" fill="none" xmlns="http://www.w3.org/2000/svg">
  <rect width="64" height="64" rx="8" fill="#E5E5E5"/>
  <path d="M32 22C33.1046 22 34 21.1046 34 20C34 18.8954 33.1046 18 32 18C30.8954 18 30 18.8954 30 20C30 21.1046 30.8954 22 32 22Z" fill="#7A7A7A"/>
  <path d="M44 32L36 40L28 32L16 44H48L44 32Z" fill="#7A7A7A"/>
  <path d="M48 16H16C14.8954 16 14 16.8954 14 18V46C14 47.1046 14.8954 48 16 48H48C49.1046 48 50 47.1046 50 46V18C50 16.8954 49.1046 16 48 16ZM16 46V18H48V46H16Z" fill="#7A7A7A"/>
</svg> 