<svg width="228" height="454" viewBox="0 0 228 454" fill="none" xmlns="http://www.w3.org/2000/svg">
<path d="M99.5 293H0V103.5V23.5H106.5V84C114.508 84 121 77.5081 121 69.5V23.5H227.5V103.5V293H128L121 147.5C119.028 140.371 109.026 140.079 106.642 147.082L106.5 147.5L99.5 293Z" fill="#242424"/>
<rect width="227.5" height="20" fill="#242424"/>
<path d="M125 293H102L108.5 149C109.823 143.856 117.034 143.604 118.713 148.642L118.832 149L125 293Z" fill="#242424"/>
<path d="M100 454V296H0V454H100Z" fill="#242424"/>
<path d="M128 454V296H228V454H128Z" fill="#242424"/>
<path d="M109 24H119V70.302C119 76.2317 114.815 81.3371 109 82.5V24Z" fill="#242424"/>
</svg>
