<svg width="22" height="23" viewBox="0 0 22 23" fill="none" xmlns="http://www.w3.org/2000/svg">
<rect x="0.5" y="1.125" width="21" height="21" rx="10.5" fill="white"/>
<rect x="0.5" y="1.125" width="21" height="21" rx="10.5" stroke="#242424"/>
<path d="M10.1143 14.2898V13.983C10.1181 13.3845 10.1844 12.8977 10.3132 12.5227C10.442 12.1477 10.6314 11.8314 10.8814 11.5739C11.1352 11.3125 11.4496 11.0625 11.8246 10.8239C12.1049 10.642 12.3397 10.4508 12.5291 10.25C12.7223 10.0455 12.8681 9.82197 12.9666 9.57955C13.0689 9.33333 13.12 9.06629 13.12 8.77841C13.12 8.36932 13.0234 8.01136 12.8303 7.70455C12.6409 7.39773 12.3833 7.16098 12.0575 6.99432C11.7318 6.82386 11.37 6.73864 10.9723 6.73864C10.5935 6.73864 10.2393 6.82197 9.9098 6.98864C9.58404 7.15151 9.317 7.39394 9.10866 7.71591C8.90412 8.03409 8.79238 8.42803 8.77344 8.89773H7.69957C7.71851 8.27273 7.87382 7.73106 8.16548 7.27273C8.45715 6.81439 8.8473 6.46023 9.33594 6.21023C9.82457 5.95644 10.37 5.82955 10.9723 5.82955C11.6011 5.82955 12.1541 5.96023 12.6314 6.22159C13.1087 6.47917 13.4818 6.83333 13.7507 7.28409C14.0196 7.73106 14.1541 8.24432 14.1541 8.82386C14.1541 9.20644 14.0935 9.55492 13.9723 9.86932C13.8511 10.1837 13.6693 10.4735 13.4268 10.7386C13.1882 11.0038 12.889 11.2538 12.5291 11.4886C12.1882 11.7159 11.9174 11.9413 11.7166 12.1648C11.5159 12.3883 11.3719 12.6439 11.2848 12.9318C11.1977 13.2159 11.1503 13.5663 11.1428 13.983V14.2898H10.1143ZM10.6598 17.7102C10.4363 17.7102 10.2431 17.6307 10.0803 17.4716C9.92116 17.3087 9.84162 17.1155 9.84162 16.892C9.84162 16.6648 9.92116 16.4716 10.0803 16.3125C10.2431 16.1534 10.4363 16.0739 10.6598 16.0739C10.8833 16.0739 11.0746 16.1534 11.2337 16.3125C11.3965 16.4716 11.478 16.6648 11.478 16.892C11.478 17.0398 11.4401 17.1761 11.3643 17.3011C11.2924 17.4261 11.1939 17.5265 11.0689 17.6023C10.9477 17.6742 10.8113 17.7102 10.6598 17.7102Z" fill="#242424"/>
</svg>
